<?xml version="1.0" encoding="UTF-8" standalone="no"?>
<!DOCTYPE svg PUBLIC "-//W3C//DTD SVG 1.1//EN" "http://www.w3.org/Graphics/SVG/1.1/DTD/svg11.dtd">
<svg version="1.1" xmlns="http://www.w3.org/2000/svg" xmlns:xlink="http://www.w3.org/1999/xlink" preserveAspectRatio="xMidYMid meet" viewBox="82.58108108108104 26.968566392479516 136.83783783783804 165.6598119858988" width="266.67" height="324.52"><defs><path d="M85.88 84.9L150 35.91L214.12 84.9L189.63 164.16L110.37 164.16L85.88 84.9Z" id="fOsyjNKsa"></path><path d="M189.63 160.34C189.63 176.5 171.87 189.63 150 189.63C128.13 189.63 110.37 176.5 110.37 160.34C110.37 144.17 128.13 131.05 150 131.05C171.87 131.05 189.63 144.17 189.63 160.34Z" id="cehOR0O1t"></path><path d="M216.42 77.06C216.42 104.16 186.66 126.15 150 126.15C113.34 126.15 83.58 104.16 83.58 77.06C83.58 49.97 113.34 27.97 150 27.97C186.66 27.97 216.42 49.97 216.42 77.06Z" id="b1Jr4GAXZN"></path><path d="M207.8 77.06C207.8 100.64 181.9 119.79 150 119.79C118.1 119.79 92.2 100.64 92.2 77.06C92.2 53.48 118.1 34.34 150 34.34C181.9 34.34 207.8 53.48 207.8 77.06Z" id="f5lzVazZ5J"></path></defs><g><g><use xlink:href="#fOsyjNKsa" opacity="1" fill="#838383" fill-opacity="1"></use></g><g><use xlink:href="#cehOR0O1t" opacity="1" fill="#838383" fill-opacity="1"></use></g><g><use xlink:href="#b1Jr4GAXZN" opacity="1" fill="#e6e6e6" fill-opacity="1"></use></g><g><use xlink:href="#f5lzVazZ5J" opacity="1" fill="#b3b3b3" fill-opacity="1"></use></g></g></svg>